# xmcd
#
# Track frame offsets: 
#        150
#        17962
#        33047
#        53062
#        68070
#        82602
#        99677
#        116392
#        130440
#        151940
#        169430
#
# Disc length: 2447 seconds
#
# Revision: 3
# Processed by: cddbd v1.5.2PL0 Copyright (c) Steve Scherf et al.
# Submitted via: ExactAudioCopy v0.99pb4
#
DISCID=83098d0b
DTITLE=Kenny Neal - Devil Child
DYEAR=1989
DGENRE=Blues
TTITLE0=Any Fool Will Do
TTITLE1=Bad Check
TTITLE2=Our Love Is Running Out
TTITLE3=Can't Have Your Cake ( And Eat it Too)
TTITLE4=Devil Child
TTITLE5=The Son I Never Knew
TTITLE6=On My Way To Heaven
TTITLE7=Yack Yack Yack
TTITLE8=Change My Way Of Livin'
TTITLE9=I Owe It All To You
TTITLE10=The Further We Go
EXTD=
EXTT0=
EXTT1=
EXTT2=
EXTT3=
EXTT4=
EXTT5=
EXTT6=
EXTT7=
EXTT8=
EXTT9=
EXTT10=
PLAYORDER=
